<svg width="260" height="160" viewBox="0 0 265 161" fill="none" xmlns="http://www.w3.org/2000/svg">
<path fill-rule="evenodd" clip-rule="evenodd" d="M9.40355 122.073L9.39374 122.052C3.67552 109.883 0.860962 95.9704 0.860962 80.389C0.860962 64.6773 3.6719 50.8235 9.40329 38.9168C15.1071 26.9269 22.9904 17.5281 33.0844 10.8445C43.1997 4.00566 54.6547 0.600098 67.3517 0.600098C80.1814 0.600098 91.7085 4.00141 101.83 10.8446C111.922 17.5268 119.804 26.923 125.508 38.9094C131.38 50.9539 134.265 64.8792 134.265 80.6001C134.265 96.3209 131.38 110.246 125.508 122.291C119.804 134.278 111.925 143.738 101.843 150.558L101.835 150.564C91.8496 157.27 80.4614 160.6 67.7739 160.6C55.2041 160.6 43.7545 157.188 33.511 150.359C23.2881 143.543 15.2634 134.086 9.41367 122.094L9.40355 122.073ZM122.655 120.917C128.284 109.378 131.098 95.9387 131.098 80.6001C131.098 65.2615 128.284 51.8226 122.655 40.2835C117.167 28.7443 109.638 19.8085 100.069 13.4761C90.5004 7.00291 79.5945 3.76632 67.3517 3.76632C55.2497 3.76632 44.4142 7.00291 34.8451 13.4761C25.2761 19.8085 17.7475 28.7443 12.2594 40.2835C6.77125 51.6819 4.02719 65.0504 4.02719 80.389C4.02719 95.5869 6.77125 109.026 12.2594 120.706C17.8882 132.245 25.5575 141.251 35.2673 147.724C44.9771 154.197 55.8126 157.434 67.7739 157.434C79.8759 157.434 90.6411 154.268 100.069 147.935C109.638 141.462 117.167 132.456 122.655 120.917ZM90.9562 105.738L90.9623 105.72C93.3422 98.9775 94.5813 90.6311 94.5813 80.6001C94.5813 70.4196 93.34 62.0845 90.969 55.4984L90.9594 55.4719L90.9503 55.4452C88.6976 48.8196 85.5468 44.1298 81.6558 41.0899L81.6319 41.0712L81.6084 41.0522C77.7225 37.8949 73.028 36.2729 67.3517 36.2729C61.9707 36.2729 57.307 37.8185 53.2403 40.8932C49.3578 43.9335 46.2133 48.619 43.9642 55.2341C41.7184 61.8394 40.5443 70.1943 40.5443 80.389C40.5443 90.5838 41.7184 98.9386 43.9642 105.544C46.2143 112.162 49.3688 116.942 53.2875 120.133C57.341 123.32 62.0542 124.927 67.5628 124.927C73.0997 124.927 77.7381 123.374 81.632 120.34C85.5484 117.149 88.7012 112.37 90.9503 105.755L90.9562 105.738ZM83.605 122.816C79.1019 126.334 73.7545 128.094 67.5628 128.094C61.3711 128.094 55.9533 126.264 51.3095 122.605C46.8064 118.947 43.3588 113.599 40.9665 106.563C38.5742 99.5271 37.3781 90.8024 37.3781 80.389C37.3781 69.9756 38.5742 61.2509 40.9665 54.2149C43.3588 47.1788 46.8064 41.9018 51.3095 38.3837C55.9533 34.8657 61.3007 33.1067 67.3517 33.1067C73.6842 33.1067 79.1019 34.9361 83.605 38.5948C88.1081 42.1128 91.5558 47.3899 93.948 54.426C96.481 61.462 97.7475 70.1867 97.7475 80.6001C97.7475 90.8727 96.481 99.5975 93.948 106.774C91.5558 113.81 88.1081 119.158 83.605 122.816ZM139.123 102.645L189.309 2.92199H232.543L187.4 90.732H209.413V59.703H248.252V90.732H264.928V125.138H248.252V158.278H209.413V125.138H139.123V102.645ZM212.579 121.972V155.112H245.086V121.972H261.761V93.8982H245.086V62.8692H212.579V93.8982H182.212L227.355 6.08822H191.26L142.289 103.397V121.972H212.579Z" fill="#E5E5E5" fill-opacity="0.2"/>
</svg>
