<svg width="260" height="160" viewBox="0 0 253 161" fill="none" xmlns="http://www.w3.org/2000/svg">
<path fill-rule="evenodd" clip-rule="evenodd" d="M9.48168 122.073L9.47186 122.052C3.75365 109.883 0.939087 95.9704 0.939087 80.389C0.939087 64.6773 3.75002 50.8235 9.48141 38.9168C15.1852 26.9269 23.0685 17.5281 33.1625 10.8445C43.2778 4.00566 54.7328 0.600098 67.4299 0.600098C80.2596 0.600098 91.7867 4.00141 101.908 10.8446C112 17.5268 119.882 26.923 125.586 38.9094C131.458 50.9539 134.343 64.8792 134.343 80.6001C134.343 96.3209 131.458 110.246 125.586 122.291C119.882 134.278 112.003 143.738 101.922 150.558L101.913 150.564C91.9277 157.27 80.5395 160.6 67.852 160.6C55.2822 160.6 43.8326 157.188 33.5891 150.359C23.3662 143.543 15.3415 134.086 9.4918 122.094L9.48168 122.073ZM122.733 120.917C128.362 109.378 131.177 95.9387 131.177 80.6001C131.177 65.2615 128.362 51.8226 122.733 40.2835C117.245 28.7443 109.717 19.8085 100.148 13.4761C90.5785 7.00291 79.6726 3.76632 67.4299 3.76632C55.3278 3.76632 44.4923 7.00291 34.9233 13.4761C25.3542 19.8085 17.8256 28.7443 12.3375 40.2835C6.84938 51.6819 4.10531 65.0504 4.10531 80.389C4.10531 95.5869 6.84938 109.026 12.3375 120.706C17.9664 132.245 25.6357 141.251 35.3454 147.724C45.0552 154.197 55.8907 157.434 67.852 157.434C79.954 157.434 90.7192 154.268 100.148 147.935C109.717 141.462 117.245 132.456 122.733 120.917ZM91.0344 105.738L91.0404 105.72C93.4203 98.9775 94.6594 90.6311 94.6594 80.6001C94.6594 70.4196 93.4181 62.0845 91.0471 55.4984L91.0375 55.4719L91.0285 55.4452C88.7758 48.8196 85.6249 44.1298 81.7339 41.0899L81.71 41.0712L81.6866 41.0522C77.8006 37.8949 73.1061 36.2729 67.4299 36.2729C62.0488 36.2729 57.3852 37.8185 53.3184 40.8932C49.4359 43.9335 46.2915 48.619 44.0423 55.2341C41.7965 61.8394 40.6225 70.1943 40.6225 80.389C40.6225 90.5838 41.7965 98.9386 44.0423 105.544C46.2925 112.162 49.4469 116.942 53.3657 120.133C57.4191 123.32 62.1323 124.927 67.6409 124.927C73.1778 124.927 77.8162 123.374 81.7102 120.34C85.6266 117.149 88.7793 112.37 91.0285 105.755L91.0344 105.738ZM83.6832 122.816C79.1801 126.334 73.8327 128.094 67.6409 128.094C61.4492 128.094 56.0314 126.264 51.3876 122.605C46.8846 118.947 43.4369 113.599 41.0446 106.563C38.6524 99.5271 37.4562 90.8024 37.4562 80.389C37.4562 69.9756 38.6524 61.2509 41.0446 54.2149C43.4369 47.1788 46.8846 41.9018 51.3876 38.3837C56.0314 34.8657 61.3788 33.1067 67.4299 33.1067C73.7623 33.1067 79.1801 34.9361 83.6832 38.5948C88.1862 42.1128 91.6339 47.3899 94.0262 54.426C96.5591 61.462 97.8256 70.1867 97.8256 80.6001C97.8256 90.8727 96.5591 99.5975 94.0262 106.774C91.6339 113.81 88.1862 119.158 83.6832 122.816ZM161.832 155.078L161.812 155.07C152.808 151.232 145.165 145.749 138.929 138.622L136.978 136.392L163.1 110.27L165.251 113.44C167.56 116.842 170.961 119.739 175.61 122.072C180.385 124.258 185.406 125.349 190.705 125.349C195.545 125.349 199.558 124.499 202.841 122.919C206.134 121.333 208.62 119.123 210.395 116.283L210.419 116.244L210.445 116.205C212.302 113.42 213.291 110.041 213.291 105.93C213.291 101.815 212.301 98.5342 210.48 95.9175L210.436 95.8535L210.395 95.7874C208.674 93.0352 206.049 90.8196 202.322 89.2045L202.304 89.1966L202.286 89.1885C198.712 87.5865 194.253 86.7215 188.805 86.7215C186.297 86.7215 183.633 86.9195 180.81 87.3229L180.743 87.3323L180.677 87.339C178.035 87.6032 175.91 88.0549 174.25 88.6478L170.019 90.1589V66.1366L194.549 37.3283H147.433V2.92199H249.808V25.6445L218.683 61.1167C223.114 62.07 227.278 63.7131 231.159 66.0561C237.734 69.8846 242.905 75.3839 246.674 82.4547C250.639 89.4866 252.552 97.7749 252.552 107.196C252.552 117.595 249.945 126.922 244.666 135.075C239.543 143.205 232.325 149.493 223.12 153.948C214.019 158.422 203.393 160.6 191.338 160.6C180.698 160.6 170.856 158.777 161.852 155.087L161.832 155.078ZM221.734 151.101C230.459 146.88 237.213 140.969 241.998 133.371C246.923 125.772 249.386 117.047 249.386 107.196C249.386 98.1902 247.556 90.4506 243.898 83.9774C240.38 77.3635 235.595 72.2975 229.544 68.7795C225.468 66.3148 221.04 64.6803 216.262 63.8759C215.016 63.6662 213.746 63.513 212.453 63.4161L246.642 24.4523V6.08822H150.599V34.1621H201.403L173.185 67.3019V85.6661C174.141 85.3246 175.197 85.0329 176.351 84.7909C176.936 84.6684 177.546 84.5586 178.182 84.4615C178.878 84.3552 179.605 84.2642 180.362 84.1885C181.555 84.0181 182.725 83.882 183.872 83.7804C185.566 83.6303 187.211 83.5552 188.805 83.5552C194.575 83.5552 199.5 84.4699 203.581 86.2993C207.803 88.1287 210.969 90.732 213.08 94.1093C215.331 97.3459 216.457 101.286 216.457 105.93C216.457 110.574 215.331 114.584 213.08 117.962C210.969 121.339 208.014 123.942 204.214 125.772C200.415 127.601 195.912 128.516 190.705 128.516C184.935 128.516 179.447 127.32 174.241 124.927C170.299 122.957 167.082 120.56 164.589 117.738C163.877 116.932 163.225 116.092 162.631 115.218L141.312 136.537C147.222 143.291 154.469 148.498 163.053 152.157C171.637 155.675 181.066 157.434 191.338 157.434C203.018 157.434 213.15 155.323 221.734 151.101Z" fill="#E5E5E5" fill-opacity="0.2"/>
</svg>
