<svg width="260" height="160" viewBox="0 0 253 161" fill="none" xmlns="http://www.w3.org/2000/svg">
<path fill-rule="evenodd" clip-rule="evenodd" d="M8.54808 122.073L8.53827 122.052C2.82005 109.883 0.00549316 95.9704 0.00549316 80.389C0.00549316 64.6773 2.81643 50.8235 8.54782 38.9168C14.2516 26.9269 22.1349 17.5281 32.2289 10.8445C42.3442 4.00566 53.7992 0.600098 66.4963 0.600098C79.326 0.600098 90.8531 4.00141 100.975 10.8446C111.067 17.5268 118.949 26.923 124.652 38.9094C130.525 50.9539 133.409 64.8792 133.409 80.6001C133.409 96.3209 130.525 110.246 124.652 122.291C118.949 134.278 111.069 143.738 100.988 150.558L100.979 150.564C90.9941 157.27 79.6059 160.6 66.9184 160.6C54.3486 160.6 42.899 157.188 32.6555 150.359C22.4326 143.543 14.4079 134.086 8.55821 122.094L8.54808 122.073ZM121.8 120.917C127.429 109.378 130.243 95.9387 130.243 80.6001C130.243 65.2615 127.429 51.8226 121.8 40.2835C116.312 28.7443 108.783 19.8085 99.2139 13.4761C89.6449 7.00291 78.739 3.76632 66.4963 3.76632C54.3942 3.76632 43.5587 7.00291 33.9897 13.4761C24.4206 19.8085 16.892 28.7443 11.4039 40.2835C5.91578 51.6819 3.17172 65.0504 3.17172 80.389C3.17172 95.5869 5.91578 109.026 11.4039 120.706C17.0328 132.245 24.7021 141.251 34.4118 147.724C44.1216 154.197 54.9571 157.434 66.9184 157.434C79.0204 157.434 89.7856 154.268 99.2139 147.935C108.783 141.462 116.312 132.456 121.8 120.917ZM90.1008 105.738L90.1068 105.72C92.4867 98.9775 93.7258 90.6311 93.7258 80.6001C93.7258 70.4196 92.4845 62.0845 90.1135 55.4984L90.1039 55.4719L90.0949 55.4452C87.8422 48.8196 84.6913 44.1298 80.8003 41.0899L80.7764 41.0712L80.753 41.0522C76.867 37.8949 72.1726 36.2729 66.4963 36.2729C61.1152 36.2729 56.4516 37.8185 52.3848 40.8932C48.5023 43.9335 45.3579 48.619 43.1087 55.2341C40.8629 61.8394 39.6889 70.1943 39.6889 80.389C39.6889 90.5838 40.8629 98.9386 43.1087 105.544C45.3589 112.162 48.5133 116.942 52.4321 120.133C56.4855 123.32 61.1987 124.927 66.7073 124.927C72.2442 124.927 76.8826 123.374 80.7766 120.34C84.693 117.149 87.8457 112.37 90.0949 105.755L90.1008 105.738ZM82.7496 122.816C78.2465 126.334 72.8991 128.094 66.7073 128.094C60.5156 128.094 55.0978 126.264 50.454 122.605C45.951 118.947 42.5033 113.599 40.111 106.563C37.7188 99.5271 36.5226 90.8024 36.5226 80.389C36.5226 69.9756 37.7188 61.2509 40.111 54.2149C42.5033 47.1788 45.951 41.9018 50.454 38.3837C55.0978 34.8657 60.4452 33.1067 66.4963 33.1067C72.8287 33.1067 78.2465 34.9361 82.7496 38.5948C87.2526 42.1128 90.7003 47.3899 93.0926 54.426C95.6255 61.462 96.892 70.1867 96.892 80.6001C96.892 90.8727 95.6255 99.5975 93.0926 106.774C90.7003 113.81 87.2526 119.158 82.7496 122.816ZM166.763 158.278V37.3283H138.056V2.92199H206.025V158.278H166.763ZM202.858 6.08822H141.223V34.1621H169.93V155.112H202.858V6.08822Z" fill="#E5E5E5" fill-opacity="0.2"/>
</svg>
