<svg width="260" height="160" viewBox="0 0 253 161" fill="none" xmlns="http://www.w3.org/2000/svg">
<path fill-rule="evenodd" clip-rule="evenodd" d="M8.89574 122.073L8.88592 122.052C3.16771 109.883 0.353149 95.9704 0.353149 80.389C0.353149 64.6773 3.16408 50.8235 8.89547 38.9168C14.5993 26.9269 22.4826 17.5281 32.5766 10.8445C42.6919 4.00566 54.1469 0.600098 66.8439 0.600098C79.6736 0.600098 91.2007 4.00141 101.322 10.8446C111.414 17.5268 119.296 26.923 125 38.9094C130.872 50.9539 133.757 64.8792 133.757 80.6001C133.757 96.3209 130.872 110.246 125 122.291C119.296 134.278 111.417 143.738 101.336 150.558L101.327 150.564C91.3418 157.27 79.9536 160.6 67.2661 160.6C54.6963 160.6 43.2467 157.188 33.0032 150.359C22.7803 143.543 14.7555 134.086 8.90586 122.094L8.89574 122.073ZM122.147 120.917C127.776 109.378 130.591 95.9387 130.591 80.6001C130.591 65.2615 127.776 51.8226 122.147 40.2835C116.659 28.7443 109.131 19.8085 99.5616 13.4761C89.9926 7.00291 79.0867 3.76632 66.8439 3.76632C54.7419 3.76632 43.9064 7.00291 34.3373 13.4761C24.7683 19.8085 17.2397 28.7443 11.7516 40.2835C6.26344 51.6819 3.51938 65.0504 3.51938 80.389C3.51938 95.5869 6.26344 109.026 11.7516 120.706C17.3804 132.245 25.0497 141.251 34.7595 147.724C44.4692 154.197 55.3048 157.434 67.2661 157.434C79.3681 157.434 90.1333 154.268 99.5616 147.935C109.131 141.462 116.659 132.456 122.147 120.917ZM90.4484 105.738L90.4545 105.72C92.8344 98.9775 94.0735 90.6311 94.0735 80.6001C94.0735 70.4196 92.8322 62.0845 90.4612 55.4984L90.4516 55.4719L90.4425 55.4452C88.1898 48.8196 85.039 44.1298 81.1479 41.0899L81.1241 41.0712L81.1006 41.0522C77.2147 37.8949 72.5202 36.2729 66.8439 36.2729C61.4629 36.2729 56.7992 37.8185 52.7325 40.8932C48.8499 43.9335 45.7055 48.619 43.4564 55.2341C41.2106 61.8394 40.0365 70.1943 40.0365 80.389C40.0365 90.5838 41.2106 98.9386 43.4564 105.544C45.7065 112.162 48.861 116.942 52.7797 120.133C56.8332 123.32 61.5463 124.927 67.055 124.927C72.5919 124.927 77.2303 123.374 81.1242 120.34C85.0406 117.149 88.1934 112.37 90.4425 105.755L90.4484 105.738ZM83.0972 122.816C78.5941 126.334 73.2467 128.094 67.055 128.094C60.8633 128.094 55.4455 126.264 50.8017 122.605C46.2986 118.947 42.851 113.599 40.4587 106.563C38.0664 99.5271 36.8703 90.8024 36.8703 80.389C36.8703 69.9756 38.0664 61.2509 40.4587 54.2149C42.851 47.1788 46.2986 41.9018 50.8017 38.3837C55.4455 34.8657 60.7929 33.1067 66.8439 33.1067C73.1764 33.1067 78.5941 34.9361 83.0972 38.5948C87.6003 42.1128 91.048 47.3899 93.4402 54.426C95.9732 61.462 97.2397 70.1867 97.2397 80.6001C97.2397 90.8727 95.9732 99.5975 93.4402 106.774C91.048 113.81 87.6003 119.158 83.0972 122.816ZM139.248 135.255L197.361 75.2133L197.379 75.195C200.815 71.7586 203.504 68.6559 205.484 65.8838C207.482 63.0871 208.879 60.585 209.744 58.3705C210.601 56.0333 211.016 53.7383 211.016 51.4708C211.016 46.4681 209.409 42.9098 206.43 40.3718L206.382 40.3309L206.336 40.2881C203.382 37.5617 199.354 36.0618 193.918 36.0618C188.625 36.0618 183.898 37.4994 179.65 40.373L179.641 40.379L179.633 40.3849C175.518 43.1278 171.305 47.8409 167.073 54.8041L165.126 58.0069L138.133 34.6132L139.478 32.339C145.643 21.9176 153.562 13.9638 163.255 8.59547L164.789 11.3653C155.642 16.4312 148.114 23.9598 142.203 33.951L164.367 53.1595C164.936 52.2233 165.507 51.3219 166.081 50.4553C169.906 44.6775 173.838 40.4425 177.876 37.7505C182.661 34.5139 188.008 32.8956 193.918 32.8956C199.969 32.8956 204.824 34.5843 208.483 37.9616C212.283 41.1982 214.182 45.7012 214.182 51.4708C214.182 54.1445 213.69 56.8182 212.705 59.4919C211.72 62.0249 210.172 64.769 208.061 67.7241C205.95 70.6792 203.136 73.9158 199.618 77.4339L142.414 136.537V155.112H249.644V126.827H193.55L223.048 97.4866C228.817 91.7171 233.391 86.44 236.768 81.6555C240.286 76.7303 242.819 71.805 244.367 66.8798C245.915 61.8138 246.689 56.3257 246.689 50.4154C246.689 40.9871 244.578 32.7549 240.356 25.7188C236.276 18.6828 230.436 13.265 222.837 9.46552C215.378 5.66606 206.513 3.76632 196.24 3.76632C184.42 3.76632 173.936 6.2993 164.789 11.3653L163.255 8.59547C172.93 3.23708 183.954 0.600098 196.24 0.600098C206.896 0.600098 216.272 2.57043 224.263 6.63866C232.377 10.6978 238.681 16.5277 243.084 24.11C247.634 31.7032 249.855 40.509 249.855 50.4154C249.855 56.6034 249.044 62.4067 247.395 67.805L247.391 67.8171L247.388 67.8291C245.725 73.1198 243.027 78.3395 239.35 83.4884C235.838 88.463 231.135 93.8768 225.287 99.7255L225.281 99.7315L201.223 123.661H252.81V158.278H139.248V135.255Z" fill="#E5E5E5" fill-opacity="0.2"/>
</svg>
