<svg width="288" height="51" viewBox="0 0 288 51" fill="none" xmlns="http://www.w3.org/2000/svg">
<path d="M0.69165 9.58973C17.8565 8.92465 27.2886 17.7544 34.6424 24.9063C41.5187 31.5014 47.0034 36.677 58.2936 36.349C69.6883 35.8716 74.9527 30.2117 81.6582 23.113C88.7819 15.4171 97.8059 5.9363 115.075 5.12191C132.24 4.45683 141.672 13.2866 149.026 20.4386C155.902 27.0336 161.387 32.2092 172.677 31.8811C184.072 31.4038 189.336 25.7438 196.042 18.6452C203.166 10.9493 212.19 1.46848 229.459 0.654087C246.624 -0.0109892 256.056 8.81879 263.41 15.9707C270.286 22.5658 275.771 27.7413 287.061 27.4133L287.355 41.8606C270.19 42.5257 260.758 33.6961 253.404 26.5441C246.527 19.949 241.043 14.7735 229.753 15.1015C218.358 15.5789 213.094 21.2388 206.388 28.3375C199.264 36.0334 190.24 45.514 172.971 46.3284C155.806 46.9935 146.374 38.1639 139.02 31.0119C132.144 24.4169 126.659 19.2413 115.369 19.5693C103.974 20.0466 98.7099 25.7066 92.0044 32.8052C84.8807 40.5012 75.8567 49.9819 58.5873 50.7962C41.4225 51.4613 31.9903 42.6317 24.6365 35.4797C17.7602 28.8847 12.2755 23.7091 0.98531 24.0371L0.69165 9.58973Z" fill="#E5E5E5"/>
</svg>
