<svg width="519" height="517" viewBox="0 0 519 517" fill="none" xmlns="http://www.w3.org/2000/svg">
<path fill-rule="evenodd" clip-rule="evenodd" d="M277.35 3.61264C191.292 -3.84159 101.934 14.2652 46.7063 63.6293C19.0887 88.3145 6.37582 112.844 2.97159 137.257C-0.440587 161.726 5.46063 186.342 15.5778 211.248C23.2858 230.224 33.3688 249.212 43.5338 268.353C46.7294 274.371 49.9331 280.403 53.0737 286.456C66.1593 311.675 78.1141 337.179 83.3937 362.884C88.5253 387.868 98.689 400.488 111.859 407.226C125.246 414.075 142.022 415.03 160.935 415.882C161.47 415.906 162.006 415.93 162.543 415.954C180.869 416.775 200.934 417.674 220.77 424.287C241.269 431.121 261.462 444.028 279.459 469.029C314.218 517.318 386.214 525.241 442.21 503.628C470.133 492.851 493.768 474.822 506.606 451.149C519.403 427.552 521.606 398.111 506.274 364.109C490.59 329.327 486.608 301.521 488.243 277.715C489.813 254.852 496.564 235.784 502.847 218.036C503.093 217.341 503.339 216.649 503.583 215.958C510.09 197.547 515.813 180.551 514.928 161.677C514.048 142.879 506.587 121.977 486.177 95.9445C445.476 44.0335 363.431 11.0689 277.35 3.61264ZM487.751 94.7105C405.379 -10.3502 156.974 -37.6124 45.3735 62.1381C-31.6724 131.003 4.89928 199.869 41.8023 269.358C58.353 300.523 74.9703 331.814 81.4346 363.287C92.0141 414.794 124.076 416.232 162.368 417.948C199.643 419.619 242.822 421.555 277.836 470.198C348.82 568.811 570.351 501.345 508.097 363.287C477.54 295.52 491.925 254.884 504.753 218.646C518.059 181.057 529.69 148.202 487.751 94.7105Z" fill="#E5E5E5" fill-opacity="0.2"/>
</svg>
