<svg width="1920" height="1968" viewBox="0 0 1920 1968" fill="none" xmlns="http://www.w3.org/2000/svg" preserveAspectRatio="none">
<path fill-rule="evenodd" clip-rule="evenodd" d="M45.8667 40.9364L0 40.5097V437.576V443.71V1967.58H1920L1920 443.71L1920 437.576L1920 10.643L1874.13 25.5763C1828.27 40.5097 1736.53 70.3763 1645.23 65.043C1595.74 62.1589 1546.43 48.9812 1497.11 35.7994C1455.23 24.6053 1413.34 13.4081 1371.31 8.50968C1317.59 2.23398 1263.72 6.29667 1209.88 10.3575C1172.21 13.1986 1134.55 16.0389 1096.96 15.3363C1063.56 14.6356 1030.24 11.1783 996.945 7.72342C939.016 1.71225 881.157 -4.29165 823.04 4.24302C778.047 10.8658 732.951 26.3467 687.853 41.828C641.431 57.7638 595.007 73.7002 548.693 79.9764C479.561 89.3229 410.795 77.489 341.841 65.623C319.511 61.7803 297.161 57.9342 274.773 54.803C183.467 42.003 91.7333 41.1497 45.8667 40.9364Z" fill="#999999"/>
</svg>
