<svg width="288" height="288" viewBox="0 0 288 288" fill="none" xmlns="http://www.w3.org/2000/svg">
<path d="M205.6 13.6L228.8 36.8L193.92 71.36C187.68 77.6 187.68 87.84 193.92 94.08C200.16 100.32 210.4 100.32 216.64 94.08L251.2 59.2L274.4 82.4C279.36 87.36 288 83.84 288 76.64V8C288 3.52 284.48 0 280 0H211.36C204.16 0 200.64 8.64 205.6 13.6ZM13.6 82.4L36.8 59.2L71.36 94.08C77.6 100.32 87.84 100.32 94.08 94.08C100.32 87.84 100.32 77.6 94.08 71.36L59.2 36.8L82.4 13.6C87.36 8.64 83.84 0 76.64 0H8C3.52 0 0 3.52 0 8V76.64C0 83.84 8.64 87.36 13.6 82.4ZM82.4 274.4L59.2 251.2L94.08 216.64C100.32 210.4 100.32 200.16 94.08 193.92C87.84 187.68 77.6 187.68 71.36 193.92L36.8 228.8L13.6 205.6C8.64 200.64 0 204.16 0 211.36V280C0 284.48 3.52 288 8 288H76.64C83.84 288 87.36 279.36 82.4 274.4ZM274.4 205.6L251.2 228.8L216.64 193.92C210.4 187.68 200.16 187.68 193.92 193.92C187.68 200.16 187.68 210.4 193.92 216.64L228.8 251.2L205.6 274.4C200.64 279.36 204.16 288 211.36 288H280C284.48 288 288 284.48 288 280V211.36C288 204.16 279.36 200.64 274.4 205.6Z" fill="#7B61FF"/>
</svg>
