<svg width="1920" height="1870" viewBox="0 0 1920 1870" fill="none" xmlns="http://www.w3.org/2000/svg" preserveAspectRatio="none">
<path fill-rule="evenodd" clip-rule="evenodd" d="M45.8667 109.973L0 111.467V296V346.133V1870H1920L1920 346.133L1920 296L1920 141.333L1874.13 116.16C1828.27 90.7734 1736.53 40.4267 1645.23 17.1733C1553.71 -5.86665 1462.83 -1.59998 1371.31 9.70666C1289.37 20.0445 1207.09 35.88 1125.08 51.6629C1115.7 53.4676 1106.33 55.2717 1096.96 57.0667C1005.44 74.5601 914.56 90.7733 823.04 76.9067C785.533 71.2105 747.954 60.4386 710.362 49.663C656.441 34.2067 602.493 18.7428 548.693 18.24C486.037 17.8019 423.681 37.6617 361.214 57.5568C332.437 66.7218 303.637 75.8943 274.773 83.0934C183.467 105.707 91.7333 108.693 45.8667 109.973Z" fill="#252525"/>
</svg>
