<svg width="87" height="96" viewBox="0 0 87 96" fill="none" xmlns="http://www.w3.org/2000/svg">
<path d="M5.69684 44.1968C4.49684 45.4968 2.39687 45.6969 1.09687 44.4969C-0.203134 43.2969 -0.403183 41.1968 0.796817 39.8968C1.99682 38.5968 4.09685 38.3968 5.39685 39.5968C6.69685 40.7968 6.89684 42.7968 5.69684 44.1968Z" fill="black"/>
<path d="M19.9969 56.8968C18.7969 58.1968 16.6969 58.3968 15.3969 57.1968C14.0969 55.9968 13.8969 53.8968 15.0969 52.5968C16.2969 51.2968 18.3969 51.0968 19.6969 52.2968C20.9969 53.4968 21.1969 55.4968 19.9969 56.8968Z" fill="black"/>
<path d="M48.4969 82.1968C47.2969 83.4968 45.1969 83.6969 43.8969 82.4969C42.5969 81.2969 42.3969 79.1968 43.5969 77.8968C44.7969 76.5968 46.8969 76.3968 48.1969 77.5968C49.5969 78.7968 49.6969 80.8968 48.4969 82.1968Z" fill="black"/>
<path d="M62.6968 94.8968C61.4968 96.1968 59.3969 96.3968 58.0969 95.1968C56.7969 93.9968 56.5968 91.8968 57.7968 90.5968C58.9968 89.2968 61.0969 89.0968 62.3969 90.2968C63.7969 91.4968 63.8968 93.5968 62.6968 94.8968Z" fill="black"/>
<path d="M31.4969 43.8968C30.2969 45.1968 28.1969 45.3968 26.8969 44.1968C25.5969 42.9968 25.3969 40.8968 26.5969 39.5968C27.7969 38.2968 29.8969 38.0968 31.1969 39.2968C32.5969 40.4968 32.6969 42.5968 31.4969 43.8968Z" fill="black"/>
<path d="M45.6968 56.5968C44.4968 57.8968 42.3969 58.0968 41.0969 56.8968C39.7969 55.6968 39.5968 53.5968 40.7968 52.2968C41.9968 50.9968 44.0969 50.7969 45.3969 51.9969C46.7969 53.1969 46.8968 55.2968 45.6968 56.5968Z" fill="black"/>
<path d="M59.9969 69.2968C58.7969 70.5968 56.6969 70.7968 55.3969 69.5968C54.0969 68.3968 53.8969 66.2968 55.0969 64.9968C56.2969 63.6968 58.3969 63.4968 59.6969 64.6968C61.0969 65.8968 61.1969 67.8968 59.9969 69.2968Z" fill="black"/>
<path d="M42.9969 30.9969C41.7969 32.2969 39.6969 32.4968 38.3969 31.2968C37.0969 30.0968 36.8969 27.9968 38.0969 26.6968C39.2969 25.3968 41.3969 25.1968 42.6969 26.3968C44.0969 27.5968 44.1969 29.5969 42.9969 30.9969Z" fill="black"/>
<path d="M57.1968 43.6968C55.9968 44.9968 53.8969 45.1969 52.5969 43.9969C51.2969 42.7969 51.0968 40.6968 52.2968 39.3968C53.4968 38.0968 55.5969 37.8968 56.8969 39.0968C58.1969 40.2968 58.3968 42.2968 57.1968 43.6968Z" fill="black"/>
<path d="M71.4969 56.2968C70.2969 57.5968 68.1969 57.7968 66.8969 56.5968C65.5969 55.3968 65.3969 53.2968 66.5969 51.9968C67.7969 50.6968 69.8969 50.4968 71.1969 51.6968C72.5969 52.8968 72.6969 54.9968 71.4969 56.2968Z" fill="black"/>
<path d="M85.7968 68.9969C84.5968 70.2969 82.4969 70.4968 81.1969 69.2968C79.8969 68.0968 79.6969 65.9968 80.8969 64.6968C82.0969 63.3968 84.1969 63.1968 85.4969 64.3968C86.7969 65.5968 86.9968 67.6969 85.7968 68.9969Z" fill="black"/>
<path d="M40.1968 5.39682C38.9968 6.69682 36.8969 6.89681 35.5969 5.69681C34.2969 4.49681 34.0968 2.39683 35.2968 1.09683C36.4968 -0.203169 38.5969 -0.403157 39.8969 0.796843C41.2969 1.99684 41.3968 3.99682 40.1968 5.39682Z" fill="black"/>
<path d="M68.7968 30.6968C67.5968 31.9968 65.4969 32.1969 64.1969 30.9969C62.8969 29.7969 62.6969 27.6968 63.8969 26.3968C65.0969 25.0968 67.1969 24.8968 68.4969 26.0968C69.7969 27.2968 69.9968 29.3968 68.7968 30.6968Z" fill="black"/>
<path d="M82.9969 43.3968C81.7969 44.6968 79.6969 44.8968 78.3969 43.6968C77.0969 42.4968 76.8969 40.3968 78.0969 39.0968C79.2969 37.7968 81.3969 37.5968 82.6969 38.7968C84.0969 39.9968 84.1969 42.0968 82.9969 43.3968Z" fill="black"/>
</svg>
